<?xml version="1.0" encoding="UTF-8" standalone="no"?>
<!-- Created with Inkscape (http://www.inkscape.org/) -->

<svg
   width="451.26395mm"
   height="444.32358mm"
   viewBox="0 0 451.26394 444.32357"
   version="1.1"
   id="svg2181"
   xml:space="preserve"
   inkscape:version="1.2.2 (b0a84865, 2022-12-01)"
   sodipodi:docname="inQuisitiveSpaceShip.svg"
   xmlns:inkscape="http://www.inkscape.org/namespaces/inkscape"
   xmlns:sodipodi="http://sodipodi.sourceforge.net/DTD/sodipodi-0.dtd"
   xmlns="http://www.w3.org/2000/svg"
   xmlns:svg="http://www.w3.org/2000/svg"><sodipodi:namedview
     id="namedview2183"
     pagecolor="#ffffff"
     bordercolor="#000000"
     borderopacity="0.25"
     inkscape:showpageshadow="2"
     inkscape:pageopacity="0.0"
     inkscape:pagecheckerboard="0"
     inkscape:deskcolor="#d1d1d1"
     inkscape:document-units="mm"
     showgrid="false"
     showguides="true"
     inkscape:zoom="0.62092452"
     inkscape:cx="702.17874"
     inkscape:cy="875.30768"
     inkscape:window-width="3161"
     inkscape:window-height="1387"
     inkscape:window-x="1719"
     inkscape:window-y="25"
     inkscape:window-maximized="0"
     inkscape:current-layer="layer1" /><defs
     id="defs2178" /><g
     inkscape:label="Layer 1"
     inkscape:groupmode="layer"
     id="layer1"
     transform="translate(212.63556,82.397087)"><path
       style="fill:#2b202f;stroke:none;stroke-width:0.180181"
       d="m -69.406085,283.21257 c 3.779784,7.44819 9.164982,14.53573 13.674861,21.70486 1.748647,2.7792 3.489337,5.55841 5.267825,8.32292 1.030488,1.60094 1.842147,3.38628 3.371965,4.72611 2.779136,2.43323 7.000557,4.19083 10.310852,6.11327 7.019059,4.07659 14.086658,8.0977 21.087216,12.19389 4.952909,2.89833 9.9185512,5.7885 14.92019919,8.62972 2.23822901,1.27292 4.76988901,3.41729 7.36063201,4.12555 1.441689,0.3933 3.6622128,0.18278 5.1723358,0.10771 2.484512,-0.12566 5.345808,-2.53604 7.360632,-3.6376 5.946992,-3.2541 11.845843,-6.58816 17.705303,-9.9467 8.025873,-4.60046 16.128343,-9.14705 24.270193,-13.60879 2.32775,-1.27455 4.56856,-2.70576 6.96276,-3.89545 1.26722,-0.6283 2.85035,-0.80129 3.87567,-1.73802 1.25827,-1.14726 1.84712,-2.81511 2.57403,-4.21205 1.24733,-2.39733 2.51575,-4.78813 3.78038,-7.18056 4.08257,-7.72073 8.31195,-15.40392 12.24969,-23.17361 8.45179,4.98069 16.652931,10.33021 24.867001,15.57201 5.54195,3.53643 11.03259,7.37476 18.50104,7.10549 5.56583,-0.20073 10.03644,-3.18719 12.99699,-6.84764 4.84542,-5.99087 5.9192,-13.5892 6.73146,-20.5625 1.10745,-9.50771 0.0851,-19.29122 -1.57138,-28.72223 -3.26744,-18.60253 -9.64818,-36.92927 -19.21322,-54.01736 -4.55384,-8.13525 -10.05522,-15.96042 -17.06294,-22.84723 -2.15925,-2.12153 -4.47228,-4.19736 -7.14578,-5.89295 -0.9541,-0.60545 -3.21819,-1.42142 -3.5146,-2.43649 -0.62824,-2.15254 0.62605,-5.45886 0.89481,-7.66362 l 2.1883,-17.78819 6.03532,-49.284726 1.79042,-14.524308 c 0.3372,-2.766309 1.10171,-5.705931 0.9533,-8.486112 -0.18501,-3.464944 -1.78266,-7.017525 -3.10897,-10.281251 C 111.63263,49.5354 109.16762,44.096618 106.33875,38.747267 95.431879,18.121445 81.703709,-1.719248 65.449439,-19.839545 c -7.19889,-8.025414 -14.86012,-15.636314 -23.45137,-22.68403 -5.717019,-4.689866 -12.464729,-9.866672 -19.893596,-12.678676 -5.75502,-2.178401 -12.7929768,-3.045192 -19.0978558,-2.818368 -6.737365,0.24236 -13.3342822,3.763933 -18.6999832,6.792088 -13.880759,7.833661 -25.589137,18.761978 -35.892032,29.593847 -17.361144,18.248731 -32.239568,38.198928 -43.169111,59.565979 -3.556976,6.951268 -6.507201,14.140637 -8.311541,21.541669 -0.81166,3.328351 -1.70489,7.042004 -1.54375,10.444445 0.11737,2.480067 0.94495,5.056744 1.43433,7.506946 0.90914,4.564712 1.78645,9.137421 2.65182,13.708334 2.962154,15.673201 6.272449,31.308851 9.089383,47.000001 1.028499,5.71997 2.200232,11.43014 3.344114,17.13542 0.326255,1.62868 0.604765,3.26552 0.929031,4.89583 0.135276,0.674 0.547074,1.614 0.31034,2.28473 -0.326255,0.93184 -1.619339,1.73312 -2.36336,2.44791 -1.812307,1.73802 -3.515199,3.55438 -5.184272,5.38542 -4.774464,5.2467 -8.896416,10.99604 -12.554846,16.80903 -15.332,24.3682 -25.11766,52.61716 -25.11766,80.12848 0,10.82469 0.93102,24.15931 9.64044,32.96528 1.54573,1.56341 3.24663,2.9375 5.27976,4.07497 12.92487,7.23278 24.982379,-3.67514 33.819116,-10.59622 1.750636,-1.37083 3.556975,-2.72698 5.371271,-4.03906 2.896509,-2.09705 5.645804,-4.32792 8.554248,-6.41191 M 89.344839,276.5216 c -4.02268,7.92635 -9.09834,15.53284 -13.46618,23.3368 -1.71463,3.06316 -3.52335,6.09042 -5.27737,9.13889 -0.82738,1.43775 -1.16278,2.97993 -2.40553,4.24306 -3.20327,3.25573 -7.82615,5.48497 -11.8743,7.97531 -7.14598,4.39646 -14.3393,8.7407 -21.485083,13.13716 -5.618947,3.45809 -11.1993,6.98146 -16.909559,10.33673 -2.488093,1.46223 -5.439109,3.58049 -8.7531838,3.44014 -3.750938,-0.1583 -6.549967,-2.40385 -9.34999201,-4.20878 -4.87233999,-3.1415 -9.79481199,-6.23729 -14.72126319,-9.32167 -6.715284,-4.20226 -13.445686,-8.39962 -20.092536,-12.67531 -2.791072,-1.79514 -6.652419,-3.47768 -8.874534,-5.74771 -0.712191,-0.72785 -0.929032,-1.65153 -1.488042,-2.44629 -2.259913,-3.21003 -4.259219,-6.53104 -6.409717,-9.79166 -5.639836,-8.55303 -11.12848,-17.17785 -16.648954,-25.78473 -8.983949,6.43965 -17.788856,13.06372 -26.657423,19.61108 -4.306964,3.17903 -8.649732,7.37312 -14.920202,7.14628 -4.60934,-0.16645 -8.54231,-3.17413 -10.58737,-6.35805 -3.88721,-6.05452 -4.73866,-14.00861 -5.13653,-20.7257 -0.64654,-10.91444 0.60079,-21.83705 2.54041,-32.63889 3.08749,-17.19254 8.25585,-34.24146 16.00838,-50.42709 3.76387,-7.85618 8.311549,-15.8984 14.771001,-22.52084 1.943605,-1.9926 4.239326,-3.9852 6.873239,-5.37073 0.841499,-0.44225 3.298358,-0.94652 3.483369,-1.82777 0.457553,-2.17702 -1.036457,-5.46539 -1.478094,-7.65219 -1.163776,-5.76729 -2.335509,-11.53295 -3.5152,-17.29861 -3.178997,-15.55407 -6.190888,-31.13587 -9.481289,-46.673618 -1.151839,-5.434539 -2.249966,-10.877237 -3.348093,-16.319446 -0.531163,-2.629063 -1.571593,-5.494268 -1.569603,-8.159723 0,-1.832185 1.1021,-3.89431 1.545731,-5.711807 1.55369,-6.375354 4.106039,-12.539862 6.918994,-18.604168 9.867225,-21.280558 24.206532,-41.101831 40.326315,-59.565979 9.905023,-11.346258 21.218712,-22.602759 34.756108,-31.150755 3.646696,-2.302657 7.9399332,-4.597024 12.3340322,-5.810147 1.641221,-0.453093 3.316859,-0.500272 4.97339899,-0.823903 1.91217301,-0.373585 3.30910201,-1.093877 5.37127201,-1.053078 8.1585638,0.161383 15.8504248,3.496849 22.4797678,7.123765 14.3773,7.865859 26.27646,18.977443 36.57896,30.245368 16.4715,18.014547 30.4199,38.112435 40.021341,59.23959 2.27663,5.009254 4.45358,10.033522 6.24083,15.177085 0.74939,2.156614 1.98538,4.605511 2.09658,6.854167 0.12672,2.564438 -0.81763,5.428664 -1.15263,7.996529 -0.66723,5.112882 -1.3651,10.22397 -1.98877,15.340279 -2.08325,17.091361 -4.54887,34.151701 -6.63212,51.243061 -0.62964,5.16673 -1.26066,10.34979 -2.01264,15.50347 -0.34694,2.37774 -1.386381,5.46049 -0.966031,7.8317 0.18799,1.05914 2.129411,1.92733 3.012291,2.61927 2.62893,2.06278 5.14587,4.22674 7.47303,6.52126 7.22058,7.11691 13.21611,15.13139 18.03434,23.5 14.23825,24.72885 20.80302,52.56167 18.47529,79.80209 -0.5542,6.48535 -1.86515,13.0017 -4.05442,19.25695 -1.0844,3.09906 -2.66654,6.19486 -6.90487,6.88517 -7.92621,1.2925 -13.80536,-2.65028 -19.49573,-6.54573 -6.05282,-4.14351 -12.04418,-8.34576 -18.103171,-12.48274 -2.81833,-1.92407 -5.52744,-4.11087 -8.55425,-5.80809 m -143.03498,-15.82987 c 0.742031,2.57195 -0.175064,5.19775 1.798381,7.50695 1.533797,1.79187 3.483369,3.50868 5.363315,5.05903 0.698265,0.57607 2.208189,1.37899 2.387232,2.22107 0.342169,1.61073 -0.173075,3.59354 0.03382,5.28587 0.789776,6.47719 1.728753,12.94295 2.518529,19.42014 0.286468,2.34837 1.155819,4.28875 1.746658,6.52778 0.477447,1.81146 0.272543,3.29 1.700903,4.89583 4.671415,5.25487 13.222082,8.66726 20.259642,11.31101 8.1657262,3.06643 17.19423719,5.81625 26.2595512,6.14427 11.8605638,0.42921 23.5480538,-3.21819 33.8191188,-7.77621 6.10495,-2.70903 13.2927,-5.88806 17.36293,-10.65823 1.59905,-1.87347 1.26882,-3.31938 1.81251,-5.38542 0.69051,-2.62417 1.37505,-4.92684 1.52166,-7.67014 0.31134,-5.82441 1.07983,-11.64556 1.56603,-17.46181 0.16054,-1.92243 -0.4313,-4.20389 -0.0842,-6.03819 0.17208,-0.91063 1.54632,-1.64011 2.25633,-2.28472 1.77809,-1.61237 3.69563,-3.38629 5.11822,-5.22223 1.88731,-2.43649 0.74581,-4.90236 1.48048,-7.50694 4.25803,1.80982 8.05273,5.46048 11.73723,7.98347 8.46214,5.79504 16.889071,11.6374 25.264871,17.51893 3.09763,2.17538 6.22113,4.32628 9.34999,6.47066 1.69195,1.16031 3.48437,2.64375 5.76914,2.92281 2.78292,0.33944 6.98763,0.19094 9.13316,-1.47201 2.34426,-1.81636 3.07137,-4.9856 3.67832,-7.47594 1.84036,-7.54938 1.66947,-15.56223 0.57413,-23.17362 -3.56712,-24.7876 -11.41892,-50.04847 -25.98004,-72.13195 -3.76228,-5.70691 -8.06507,-12.09597 -14.062991,-16.43531 -2.22888,-1.614 -4.42433,-3.26063 -7.16169,-4.28549 -0.90457,-0.33944 -3.02304,-0.61035 -3.31846,-1.4916 -0.67697,-2.01708 0.68037,-5.24343 0.9163,-7.3258 0.73547,-6.48861 1.97564,-12.93642 2.76641,-19.42014 2.206,-18.08684 5.26583,-36.10677 7.62621,-54.180555 0.622671,-4.768053 1.125581,-9.627168 2.043671,-14.361113 0.23972,-1.235872 1.08042,-2.238049 1.47252,-3.427084 0.37639,-1.141382 0.2626,-2.416747 0.22759,-3.590278 C 102.98444,55.70921 97.929279,45.917379 93.186049,37.441711 83.100189,19.419984 69.439059,2.93261 54.332249,-12.495794 44.300309,-22.741306 33.024617,-32.316251 20.711872,-40.715217 c -3.769837,-2.571455 -7.41156,-5.0878 -11.9361598,-6.598295 -1.500574,-0.500925 -2.703739,-1.094007 -4.376592,-1.084313 -2.910035,0.01689 -5.34103301,1.306502 -7.758504,2.469834 -3.550012,1.708336 -6.7962502,3.116051 -9.9467992,5.341534 -11.764478,8.309699 -21.993568,18.064322 -31.515441,28.090663 -15.101231,15.899057 -28.149443,33.346504 -37.797839,51.895839 -4.927644,9.473112 -9.638448,20.231544 -9.059545,30.680559 0.09549,1.741774 1.547722,3.055653 1.893871,4.732639 1.112052,5.368445 1.969466,10.775404 2.988019,16.156252 3.318252,17.556465 6.596717,35.127605 9.686193,52.711805 1.060329,6.03983 2.130605,12.09434 3.344114,18.11459 0.362064,1.79187 0.636595,3.59354 0.99468,5.38542 0.145224,0.72784 0.59084,1.83267 0.346149,2.55562 -0.254638,0.74743 -2.182328,1.08851 -2.948232,1.40184 -2.327551,0.94816 -4.328847,2.20802 -6.167015,3.71268 -5.948187,4.87135 -10.332736,10.83121 -14.074722,16.97222 -10.676899,17.51566 -17.400929,37.15122 -21.053399,56.46528 -1.0464,5.54372 -1.52981,11.09559 -2.32954,16.64584 -1.12796,7.84639 -0.61073,16.46795 1.67504,24.15278 0.87532,2.94403 2.14851,6.57674 5.94222,7.75663 1.10211,0.34271 2.23803,0.17788 3.38191,0.26764 1.06829,0.0832 2.10873,0.21868 3.18298,0.0604 2.69359,-0.39982 4.63919,-2.03666 6.564887,-3.50052 2.888551,-2.19496 5.830814,-4.34913 8.753184,-6.51472 l 24.071255,-17.84368 c 3.819571,-2.83143 7.485962,-6.2373 11.737224,-8.62157 m 179.6392,20.7257 c -1.4578,-0.40635 -2.61382,-1.52424 -3.77978,-2.32552 -2.46064,-1.68743 -4.89482,-3.40261 -7.36063,-5.08514 -8.87832,-6.06268 -17.595691,-12.28365 -26.458491,-18.36101 -2.93092,-2.00892 -5.85548,-4.0309 -8.75318,-6.07247 -0.89999,-0.63482 -2.87761,-1.47691 -3.24405,-2.43323 -0.37937,-0.99059 0.37539,-2.74493 0.61809,-3.74694 0.57393,-2.36958 0.88726,-4.7816 1.20038,-7.18056 1.2147,-9.30861 2.55971,-18.61559 3.95505,-27.90625 1.11861,-7.4482 2.06436,-14.90945 3.18297,-22.35764 0.26101,-1.73802 0.4492,-3.4842 0.7102,-5.22222 0.0639,-0.42594 0.005,-1.50792 0.62645,-1.67438 0.63998,-0.17299 1.46179,0.4749 1.90303,0.77028 1.52086,1.0216 2.82131,2.2684 4.0561,3.51521 5.26544,5.31524 8.898211,11.37628 12.605381,17.4618 3.94172,6.47067 6.88975,13.38195 9.66431,20.23612 5.04383,12.45826 9.00245,25.44365 10.70932,38.51389 0.6364,4.87299 0.96166,9.61868 0.96166,14.52431 0,2.39569 0.29502,5.03128 -0.59681,7.34375 M -53.491205,16.063237 c 1.617349,0.37241 2.898497,1.888976 4.177656,2.761087 2.627944,1.792365 5.456814,3.359684 8.355311,4.839695 9.999717,5.106355 21.30903,8.646695 32.6255042,11.191387 3.869106,0.869989 8.84907099,2.493285 12.930839,2.184194 14.7184788,-1.114944 30.5364758,-6.60399 42.9701738,-12.987994 3.95724,-2.031934 7.82992,-4.194751 11.33935,-6.729324 0.70384,-0.508514 2.72702,-2.825712 3.72289,-2.605073 0.89004,0.196976 1.70369,1.73084 2.17676,2.325195 1.74984,2.198719 3.43463,4.439379 5.08162,6.690973 6.83783,9.348105 13.05677,19.173064 17.26764,29.538197 1.17313,2.887563 2.07351,5.827511 2.78491,8.812501 0.25225,1.058153 0.85463,2.605073 -0.2441,3.443567 -2.23425,1.704892 -5.65018,2.751785 -8.30995,3.950121 -7.78596,3.507702 -16.04478,6.241373 -24.46913,8.545026 -15.20129,4.156726 -31.28865,7.794004 -47.3467638,8.370896 -16.748222,0.601535 -33.4487002,-2.270035 -49.5350632,-5.843993 -10.241225,-2.275094 -20.631651,-5.056091 -30.039335,-9.127793 -2.164423,-0.937062 -4.44423,-1.746344 -6.564888,-2.74134 -0.819616,-0.384813 -1.877955,-0.762771 -2.23803,-1.539903 -0.469488,-1.013601 0.187,-2.710334 0.397872,-3.751025 0.656489,-3.220643 1.706871,-6.333088 2.806987,-9.465279 4.782422,-13.629185 14.076712,-25.480694 22.109747,-37.861115 m -22.280832,64.951396 c 1.712839,-0.271556 4.185614,1.238646 5.769144,1.794976 4.712794,1.656423 9.457418,3.239083 14.323392,4.569608 15.761699,4.309639 32.523648,7.900081 49.1371912,8.975695 -0.841699,1.008868 -3.6045222,1.311921 -4.9734002,1.7625 -3.659826,1.204539 -7.076949,2.741338 -10.344672,4.548228 -9.744482,5.38868 -17.363134,13.63326 -21.218513,22.73788 -8.67162,20.48744 0.642563,44.25997 24.003617,55.22827 4.146025,1.94691 8.677389,3.45157 13.3287122,4.3573 7.775612,1.51281 16.0217078,1.58951 23.8723188,0.45694 2.290549,-0.33128 4.563791,-0.84208 6.763824,-1.45569 1.0096,-0.28233 2.300297,-0.94164 3.381912,-0.90737 1.932464,0.0604 4.742833,2.96362 6.167015,3.964 2.672706,1.87673 5.924715,5.18469 9.548925,5.70201 2.57841,0.36882 6.23068,-0.9041 8.55425,-1.7935 2.93809,-1.12441 5.54634,-3.07622 7.95744,-4.81751 3.64192,-2.63069 7.27032,-5.13246 8.81804,-9.0018 1.07664,-2.69108 2.4111,-4.20063 0.44661,-7.01736 -2.13817,-3.06643 -5.87617,-5.80157 -8.86976,-8.32292 -0.99965,-0.84208 -3.40837,-2.35 -3.49551,-3.59028 -0.11001,-1.56177 1.41384,-3.67514 1.86025,-5.22222 1.12001,-3.88077 2.04288,-8.07486 1.82942,-12.07639 -0.81902,-15.34355 -9.36809,-29.5692 -25.058177,-38.3458 -5.209934,-2.914329 -10.833855,-4.20177 -16.511687,-6.206288 v -0.163194 c 2.866668,-0.880924 6.336907,-0.942122 9.349992,-1.405268 5.951767,-0.914868 11.871702,-2.066368 17.705302,-3.396566 9.52227,-2.171466 18.93095,-4.694289 28.04998,-7.833334 4.39489,-1.512976 8.54151,-3.49073 12.93084,-4.989834 0.41438,1.236035 -0.15159,2.816899 -0.34118,4.079861 -0.35112,2.337108 -0.64376,4.679765 -0.99468,7.017362 -1.27299,8.474526 -2.49585,16.968961 -3.60452,25.458331 -2.87284,21.99862 -6.47736,43.93195 -9.34999,65.93057 -0.97399,7.45798 -2.04128,14.9127 -3.1593,22.35764 -0.43587,2.90159 -0.0832,6.92107 -1.42797,9.62194 -0.56517,1.1342 -2.86945,1.66459 -3.78038,2.78084 -4.22222,5.17163 -11.16468,8.81086 -17.52705,12.08455 -2.70613,1.39204 -5.72578,3.1627 -8.94914,3.61149 -1.263642,0.17625 -1.547723,-1.25333 -1.913367,-1.98771 -1.094944,-2.19986 -2.321981,-4.45847 -3.744174,-6.52778 -4.850657,-7.05979 -10.000314,-14.63691 -17.024147,-20.39931 -1.570003,-1.2876 -3.095842,-2.62906 -4.774464,-3.82201 -0.582683,-0.41451 -1.3239188,-1.22233 -2.1882958,-1.14236 -0.887652,0.0832 -1.73512,0.89104 -2.387232,1.3333 -1.935448,1.31208 -3.56175,2.72371 -5.198197,4.28385 -6.451296,6.14917 -11.4342452,13.00334 -15.8398812,20.23612 -1.256082,2.06277 -2.392006,4.20225 -3.367589,6.36458 -0.283483,0.6283 -0.64316,2.08399 -1.500773,2.33531 -1.536979,0.44715 -4.619492,-1.00528 -5.923319,-1.59114 -4.884276,-2.19334 -9.665106,-4.54823 -14.124456,-7.29316 -1.969466,-1.21091 -4.066251,-2.41202 -5.751239,-3.89546 -1.006616,-0.88777 -1.595467,-2.05461 -2.639881,-2.90649 -0.80768,-0.65931 -2.074902,-0.81108 -2.830859,-1.4508 -0.68235,-0.57607 -0.612723,-1.90611 -0.763914,-2.66007 -0.475457,-2.3859 -0.909138,-4.78486 -1.316956,-7.18055 -1.490031,-8.77171 -3.324221,-17.50424 -4.826188,-26.27431 -3.304326,-19.28469 -7.203472,-38.5041 -10.662969,-57.77084 -2.399168,-13.3591 -4.366645,-26.876985 -7.414345,-40.145837 m 162.729646,-1.46875 c -1.83857,0.100201 -3.50227,1.277486 -5.17234,1.863844 -4.38733,1.540392 -8.67102,3.252955 -13.12977,4.653326 -11.54247,3.625039 -23.54507,6.350223 -35.617305,8.412022 -3.658234,0.624709 -7.386096,1.584618 -11.132657,1.716643 v 0.489583 c 4.852844,0.253441 10.184329,3.332599 14.127439,5.416429 16.647763,8.79781 25.184903,24.27027 25.656773,40.11482 0.11718,3.93136 -1.12438,7.94105 -2.16223,11.75 -0.337,1.23539 -1.86602,3.18556 -1.54772,4.40625 0.32864,1.25987 2.46322,2.50504 3.48018,3.42709 3.43583,3.11538 9.91497,6.99451 9.97684,11.58681 0.0187,1.37572 -0.84806,2.24392 -1.48923,3.42708 -1.22406,2.25698 -2.18452,4.01785 -4.29384,5.8799 -1.45004,1.27944 -3.45313,2.21454 -4.55782,3.74857 -1.42478,0.17788 -3.00035,1.83268 -4.17766,2.5491 -2.31024,1.40837 -4.62426,1.99097 -7.1048,3.03052 -1.41185,0.59076 -2.56747,1.39695 -4.23455,1.43448 -5.01657,0.11587 -9.941626,-5.14226 -13.524662,-7.57875 -1.047001,-0.71153 -2.13717,-2.09705 -3.583832,-2.25698 -0.965636,-0.10771 -2.279409,0.44878 -3.182976,0.7001 -2.108523,0.58914 -4.36764,1.28108 -6.564888,1.58462 -7.659832,1.06077 -15.6391538,1.07219 -23.2755118,-0.24642 -18.6942142,-3.23125 -33.7634172,-15.35007 -39.6379962,-30.06042 -3.443583,-8.61993 -3.415731,-18.02809 -0.696276,-26.76389 2.769189,-8.88757 9.534007,-18.1766 18.454297,-23.80518 3.850605,-2.42996 7.735029,-4.61236 12.132112,-6.326556 1.338441,-0.521896 4.4641232,-0.957951 4.9734002,-2.180767 -5.0424312,-0.03427 -10.1757752,-1.354841 -15.1161522,-2.056251 -12.077205,-1.71501 -24.090154,-4.493233 -35.612527,-7.934188 -4.963453,-1.481806 -9.859268,-3.913403 -14.9202,-5.023452 0.008,2.360608 0.811659,4.691025 1.207542,7.017362 0.897201,5.275587 1.971456,10.550359 2.916402,15.829862 2.844784,15.88698 5.526442,31.81802 8.749205,47.65278 3.001944,14.73809 5.460793,29.60348 8.128524,44.38889 1.08818,6.03004 1.30701,12.77324 3.467455,18.60417 3.089476,-0.0212 4.374602,3.41893 6.365952,4.82566 5.381218,3.80243 11.58444,7.67341 18.103175,10.05768 1.587708,0.58097 4.301195,2.23903 6.122255,2.00729 0.894814,-0.11424 1.403295,-1.93059 1.702296,-2.52951 1.311585,-2.63233 2.606857,-5.28424 4.160746,-7.83334 3.711748,-6.08878 8.2443052,-11.89851 13.48129519,-17.16316 2.33371901,-2.34674 5.22028001,-5.37889 8.40405201,-6.96188 1.067092,-0.52875 2.115286,-0.15829 2.9325148,0.46837 2.321981,1.78372 5.615366,3.87913 7.359637,6.04636 3.213413,3.99337 7.111365,7.64403 10.225509,11.74184 3.772026,4.96274 6.629741,10.22903 9.669082,15.49694 l 4.17766,-1.14236 c 2.33014,-1.93222 6.36734,-3.21166 9.15105,-4.76364 4.18124,-2.33368 8.47388,-4.88604 11.84286,-7.99327 0.68076,-0.6283 0.91411,-1.44916 1.56205,-2.09378 0.85483,-0.85025 2.81096,-1.35288 3.35704,-2.32716 0.57274,-1.02159 0.42692,-2.74656 0.60238,-3.87423 0.49137,-3.15945 1.00045,-6.29768 1.36948,-9.46528 0.96165,-8.25601 2.08922,-16.59851 3.40439,-24.80556 3.30791,-20.64083 5.74149,-41.35348 8.75378,-62.01389 1.08599,-7.44983 2.18651,-14.898187 3.16069,-22.357643 0.46512,-3.562045 1.55389,-7.174192 1.55688,-10.770834 M 23.695961,285.3341 c 0.355299,-3.33896 2.879797,-7.08754 4.177656,-10.28125 3.006917,-7.39924 5.877166,-14.86865 9.140512,-22.19445 0.823,-1.84736 1.90839,-3.90851 2.16422,-5.875 0.19417,-1.4916 -0.59422,-3.48257 0.62904,-4.82566 0.49654,-0.54507 1.84414,-0.53365 2.58856,-0.72785 1.80096,-0.47 3.48675,-1.30229 5.17233,-1.99424 4.1506,-1.70211 8.15618,-3.64576 11.93616,-5.85705 2.05282,-1.20111 4.39012,-3.23777 6.76382,-3.89382 -0.005,6.27157 -1.64619,12.64594 -1.9816,18.93056 -0.11598,2.17375 -0.20669,4.35077 -0.20669,6.52778 0,0.95469 0.31292,2.35326 -0.11996,3.2492 -0.38076,0.78823 -1.62411,1.30719 -2.25932,1.97466 -1.7202,1.80982 -3.24723,3.6376 -5.09594,5.38378 -6.4513,6.09531 -15.0133,11.87729 -23.558797,15.89841 -2.837623,1.33493 -6.075306,3.22309 -9.349991,3.68493 M 57.962289,174.52506 c 0.2061,0.79312 -1.16238,1.47854 -1.72517,1.97302 -1.89885,1.67111 -3.83032,3.29816 -5.63009,5.04434 -0.54469,0.52875 -1.40628,1.87184 -2.44214,1.57809 -1.32312,-0.37372 -2.72323,-1.80983 -3.77958,-2.55726 -3.75055,-2.65517 -8.272161,-7.28663 -13.328716,-8.08465 -2.470388,-0.39004 -3.706576,0.40472 -5.965096,0.83229 -5.281552,0.99875 -10.415692,2.15253 -15.9178638,2.35 -20.1892182,0.72622 -37.5121672,-10.16701 -41.8911462,-26.43098 -4.490781,-16.68173 6.035917,-35.11618 25.7773312,-41.54114 4.078187,-1.32677 8.015927,-1.8033 12.334031,-2.04646 4.186409,-0.235 8.2846898,0.18767 12.3340318,1.1342 4.651521,1.08688 9.041243,2.91955 12.93084,5.26955 12.559228,7.58854 19.300168,20.94111 17.449468,33.59358 -0.40861,2.79389 -1.22624,5.49965 -2.33093,8.15972 -0.95827,2.30757 -2.27881,4.32302 -1.69672,6.85417 0.41179,1.79187 2.02835,3.11212 3.45392,4.40625 2.17159,1.97302 4.34118,3.97052 6.60169,5.875 1.01597,0.85514 3.51958,2.41038 3.82614,3.59028 M 54.545169,5.2924024 c -0.0593,1.2270591 -2.41071,3.0829066 -3.4038,3.9142192 -3.93515,3.2945694 -9.049,5.5977334 -13.917761,7.8130984 -6.507395,2.961 -13.438723,5.274934 -20.490407,7.20324 -3.479391,0.951424 -7.4483628,2.144702 -11.1404158,2.278358 -4.343966,0.157156 -9.23063,-1.149216 -13.328711,-2.222219 -6.2334612,-1.632108 -12.4277312,-3.324434 -18.3021122,-5.727636 -5.380224,-2.201167 -10.696788,-4.443459 -15.318072,-7.643539 -1.225445,-0.849101 -4.119964,-2.8978442 -4.235347,-4.3099659 -0.07361,-0.9024654 1.364701,-2.0815454 1.963498,-2.7743061 1.983392,-2.300389 3.964795,-4.59963596 6.025772,-6.854167 8.638,-9.447328 18.064383,-18.429061 28.4737092,-26.594333 2.908444,-2.281459 5.988371,-4.45782 9.15105499,-6.499709 0.857017,-0.553392 2.41866401,-1.930427 3.58084801,-1.877226 1.118418,0.05141 2.505002,1.229507 3.381912,1.748792 2.956985,1.751566 5.8268348,3.648375 8.5542478,5.634452 10.590557,7.711917 20.381192,16.092443 29.282784,25.140107 2.48908,2.530004 4.96862,5.06914604 7.3467,7.67014 0.68414,0.748409 2.42364,2.1143471 2.3761,3.1006944 m -99.482126,1.1423612 c 3.41772,4.2564384 8.536144,6.9873344 13.933278,9.3608344 7.501876,3.298976 15.437433,6.088459 23.6656252,7.897796 4.030841,0.886472 8.487007,2.386393 12.731903,2.146986 3.413145,-0.192732 6.7216498,-1.238319 9.9467998,-2.077955 5.489042,-1.428767 10.659388,-3.151285 15.91488,-5.073226 5.830814,-2.132299 11.09784,-4.889796 16.31355,-7.876744 2.00647,-1.1490521 5.30661,-3.2875524 5.93446,-5.3568582 0.25742,-0.848448 -1.43752,-2.3021838 -2.0566,-2.9228128 -2.50302,-2.50976796 -4.75079,-5.212757 -7.32005,-7.684827 -9.286733,-8.93506 -18.902304,-18.651332 -30.36062,-25.807409 -2.558316,-1.597674 -4.9708128,-3.308605 -7.5766758,-4.860258 -0.771076,-0.459066 -1.935249,-1.506448 -2.98404,-1.374423 -1.39096,0.17527 -3.47063701,2.004354 -4.518632,2.761087 -3.302934,2.384597 -6.690416,4.69592 -9.8047592,7.24975 -8.122756,6.660782 -15.998831,13.694301 -22.889974,21.240576 -3.717716,4.070885 -7.15533,8.348702 -10.929145,12.3774836 M -30.613566,283.37576 c 2.342074,0.909 4.490383,2.25209 6.763824,3.28674 4.933414,2.24556 10.029557,4.32465 15.3180722,5.94681 2.304275,0.70663 4.716175,1.25007 7.161695,1.48996 0.92664399,0.0914 2.50918,-0.2301 3.25519,0.30844 0.881684,0.63809 1.261055,1.98934 1.76695,2.83958 1.264238,2.12479 2.822901,4.18268 3.92998,6.36459 l -0.596808,-0.1632 0.397872,0.97917 0.596808,-0.32639 c 0.60019,1.18316 1.339834,2.98483 2.7851038,3.59028 0.481226,-2.21292 2.8981,-3.66045 4.140057,-5.54861 1.121203,-1.70375 1.917345,-3.74858 2.852543,-5.54862 0.369027,-0.70989 0.629832,-1.80982 1.332871,-2.35 0.688319,-0.52875 2.690013,-0.35576 3.610689,-0.45041 2.382855,-0.24316 4.747806,-0.97101 6.96276,-1.70375 5.252507,-1.74129 10.243808,-4.07823 15.119138,-6.4315 2.13518,-1.03139 4.08793,-2.45607 6.36595,-3.26225 0.34336,1.11461 -0.0857,2.44791 -0.18123,3.59027 -0.18581,2.22761 -0.23853,4.47316 -0.55762,6.69098 -0.35192,2.44628 -0.57731,5.04434 -0.65072,7.50694 -0.0378,1.26639 0.38614,2.7841 -0.41975,3.91667 -3.07058,4.31323 -10.85137,7.02878 -16.094921,9.17969 -4.812659,1.97302 -9.999318,3.80569 -15.318071,4.59229 -11.3190598,1.67274 -22.3554328,-1.11462 -32.426567,-5.24507 -4.40882,-1.80819 -11.125894,-3.9901 -13.596878,-7.71094 -0.635401,-0.95632 -0.234943,-2.21781 -0.385538,-3.26389 -0.437261,-3.04194 -0.772269,-6.09368 -1.169743,-9.13889 -0.346348,-2.65354 -1.755809,-6.56041 -0.961657,-9.13889 m 76.590355,2.44792 4.57553,-2.28472 v 0.81597 c 0.34535,-0.69358 -0.10146,-1.16521 -0.99567,-0.79149 -1.18865,0.49774 -2.8983,1.30882 -3.57986,2.26024 m 4.57553,-1.30556 h -0.19893 v 0.97917 l 0.19893,-0.97917 m -0.19893,1.46875 h -0.19894 l -0.19894,3.75348 0.39788,-3.75348 m -0.39788,5.22223 h -0.19893 v 0.81597 l 0.19893,-0.81597 m -0.19893,0.97916 h -0.19894 v 0.97917 l 0.19894,-0.97917 m 0,1.14236 h -0.19894 l -0.19893,2.77431 0.39787,-2.77431 m -0.39787,5.05903 h -0.19894 v 0.48959 l 0.19894,-0.48959 m -0.19894,0.65278 h -0.19894 c 0,1.34799 0.39489,3.32754 -0.31969,4.56945 -1.05376,1.83104 -3.51002,3.02562 -5.44945,4.1484 -5.26783,3.05337 -11.401818,5.74608 -17.506368,7.4384 v 0.1632 c 6.802616,-1.29087 13.493228,-5.01007 19.239898,-8.14014 1.34023,-0.72948 2.89651,-1.86205 3.78754,-2.96361 0.37718,-0.46674 0.81683,-1.03466 0.24807,-1.46223 0.56478,-1.0934 0.60915,-2.61437 0.19894,-3.75347 m -3.38191,-13.38194 -4.77447,2.2325 -9.349988,3.96888 v 0.1632 c 3.622226,-0.57281 7.834898,-3.01257 10.941478,-4.61024 1.05953,-0.54671 2.56787,-0.81271 3.18298,-1.75434 m -14.323394,6.36458 c -1.279159,0.28559 -4.011545,0.74253 -4.774464,1.63194 l -5.570208,0.81598 v 0.16319 c 3.1597,-0.20399 7.826142,-0.94163 10.344672,-2.61111 m -21.087216,-6.20139 c -2.1612408,-2.1966 -2.6299338,-6.18507 -3.8993438,-8.8125 -3.732239,-7.724 -7.13304901,-15.56386 -10.707332,-23.33681 -1.24713,-2.71229 -2.344461,-5.51108 -3.782768,-8.15972 -0.503507,-0.92695 -1.950369,-1.91754 -1.9957262,-2.9375 -0.0565,-1.26476 0.9320152,-2.89018 1.4200052,-4.07986 1.420204,-3.46136 3.1784,-6.77747 4.955297,-10.11806 2.359579,-4.43563 5.477702,-8.71948 8.771883,-12.72917 0.628837,-0.76538 2.392802,-3.64903 3.630582,-3.64903 1.206746,0 2.8706468,2.59969 3.5229578,3.32264 3.224354,3.57559 5.956342,7.39924 8.628053,11.26042 2.343267,3.38629 4.129314,6.99941 5.888505,10.60764 0.698266,1.43122 1.991747,3.33243 2.010646,4.89583 0.01293,1.06893 -1.489632,2.25046 -1.96867,3.26389 -1.363508,2.88528 -2.47934,5.87827 -3.67594,8.8125 -3.130854,7.67667 -6.229481,15.36639 -9.476912,23.01042 -1.184664,2.789 -1.642615,6.03657 -3.321237,8.64931 m 15.119136,29.5382 -5.769144,1.63194 v 0.1632 l 0.99468,-0.48959 c 1.412048,0.17136 3.766654,-0.47652 4.774464,-1.30555 m -5.172336,-21.05209 -1.193616,0.97917 h 0.198936 l 0.99468,-0.97917 m -0.795744,22.68403 -0.596808,0.32639 h 0.596808 v -0.32639 m -0.397872,-21.54167 h -0.198936 l -3.643314,7.18056 -4.314126,6.20139 -3.1829758,-4.40625 h -0.198936 c 0.606158,1.73965 1.886709,3.29326 3.1829758,4.73264 1.16676,-0.61525 1.467551,-2.14438 2.182527,-3.1007 2.434976,-3.25573 4.860802,-6.87048 6.172785,-10.60764 m -0.397872,21.70487 h -0.795744 v 0.16319 l 0.795744,-0.16319 m -1.591488,0.16319 -1.98936,0.1632 v 0.16319 l 1.98936,-0.32639 m -2.387232,0.32639 H 8.5768252 v 0.16319 l 6.1670158,-0.16319 m -6.3659518,0.16319 h -0.99468 v 0.1632 l 0.99468,-0.1632 m -0.729498,-13.92538 -0.132492,-0.0555 0.132492,0.0555 m -0.464118,13.76219 -3.97872,-0.32639 v 0.1632 l 3.97872,0.16319 M 0.22151319,294.47299 v 0.16319 c 1.63903401,0.10281 1.75879301,1.26149 2.39339901,2.28472 1.340232,2.16233 3.033973,4.30181 4.171489,6.52778 0.266375,-0.82087 -0.727708,-1.90121 -1.249517,-2.58337 -1.300245,-1.70211 -2.586765,-6.36621 -5.31537101,-6.39232 M 4.4928682,125.24033 c -0.279107,-0.99875 -0.874721,-1.9257 -1.157807,-2.9375 -0.860399,-3.07458 -1.091164,-6.81337 -4.705036,-8.65094 -3.991252,-2.0285 -10.4027612,1.60747 -13.3287112,3.63597 -8.442247,5.85379 -15.788555,16.39452 -12.855642,25.74067 0.230567,0.73437 0.558612,1.44263 0.973195,2.12152 2.243799,3.67025 6.877217,2.3141 10.887767,1.98608 2.342073,-0.19257 5.009407,-0.1224 6.7264242,-1.66622 1.764363,-1.58625 0.549063,-3.12354 1.18347,-4.8893 0.888249,-2.4724 2.997766,-4.84525 4.906358,-6.85417 2.37987199,-2.50503 8.395298,-4.81587 7.369982,-8.48611 m -1.685187,191.91669 -1.591488,-0.1632 v 0.1632 h 1.591488 m -1.790424,-0.32639 H 0.42044919 v 0.32639 H 1.0172572 v -0.32639 m -0.79574401,-0.1632 -4.77446399,-1.14236 v 0.1632 l 4.77446399,1.30555 v -0.32639 m -0.99468,-22.19444 -8.55424699,-1.63195 v 0.1632 c 2.331529,0.51079 6.143143,2.27493 8.55424699,1.46875 m -2.18829599,-8.8125 c -2.928934,-0.35414 -5.743481,-1.82615 -8.3553112,-2.89671 -8.716381,-3.57559 -16.228403,-8.94958 -23.474448,-14.19139 -2.743327,-1.98607 -4.824198,-4.24305 -7.066206,-6.5751 -0.744021,-0.77518 -2.275828,-1.39858 -2.733381,-2.29941 -0.475457,-0.94 -0.145223,-2.40875 -0.147212,-3.4124 -0.004,-1.93875 -0.206894,-3.94278 -0.431692,-5.875 -0.431691,-3.70125 -0.751978,-7.41555 -1.412445,-11.09722 -0.481425,-2.67639 -1.328893,-5.4507 -1.338839,-8.15973 2.255934,0.71153 4.342772,2.38101 6.365951,3.48094 3.738008,2.03504 7.659036,3.90851 11.737224,5.44417 1.951562,0.73601 3.927395,1.60583 5.96808,2.15743 0.76093,0.20563 2.256332,0.12076 2.813552,0.60219 1.273986,1.10319 0.65987,3.16597 0.827772,4.47153 0.287463,2.23576 1.658928,4.44052 2.610041,6.52778 3.375944,7.40576 6.854936,14.77889 10.1968622,22.19444 1.379422,3.0599 3.748551,6.43639 4.440052,9.62848 m -1.790423,29.70139 h -0.596808 v 0.16319 l 0.596808,-0.16319 m -0.795744,-0.1632 -0.795744,-0.16319 v 0.16319 h 0.795744 m -0.99468,-0.32639 -1.193616,-0.32638 v 0.16319 l 1.193616,0.16319 m -1.392552,-0.48958 -15.5170082,-6.52778 c 0.858409,1.12441 2.805992,1.71844 4.177656,2.35327 3.597757,1.66784 7.405591,3.42545 11.3393522,4.5009 v -0.32639 m -1.591488,-21.70486 -5.9680802,-2.28473 -3.182976,-1.20763 -7.95744,-3.48747 -3.580848,-1.50628 v 1.14236 h 0.198936 v -0.81598 c 1.887704,0.49285 3.568116,1.64827 5.286923,2.44303 3.06063,1.41652 6.262107,2.7025 9.434341,3.93788 1.466954,0.57281 4.134884,2.01382 5.7691442,1.77882 m -14.1244562,15.01389 c -1.416822,-0.92368 -3.311687,-1.88816 -3.907103,-3.37976 -0.294425,-0.73927 0.0044,-1.56993 -0.270553,-2.33205 h -0.198936 c 0.0058,2.22108 0.990304,5.39358 4.376592,5.71181 m -4.177656,-7.01736 h -0.198936 l -0.198936,0.81597 0.397872,-0.81597 m -0.198936,-1.63195 h -0.198936 v 0.97917 l 0.198936,-0.97917 m -0.397872,-2.44792 h -0.397872 l 0.198936,1.79514 0.198936,-1.79514 m -0.198936,-1.63194 h -0.198936 l -0.198936,0.97917 0.397872,-0.97917 m -0.198936,-1.46875 h -0.198936 v 0.97917 l 0.198936,-0.97917 m -0.198936,-1.63195 h -0.198936 v 0.97917 l 0.198936,-0.97917 m -0.198936,-1.46875 h -0.198936 v 0.97917 l 0.198936,-0.97917 m -0.198936,-1.63194 h -0.198936 v 1.14236 l 0.198936,-1.14236 m -0.198936,-1.63194 h -0.198936 v 1.30555 l 0.198936,-1.30555 m -0.198936,-1.46875 h -0.198936 v 1.14236 l 0.198936,-1.14236 m -75.595678,-0.97917 c -0.86139,-1.88816 -0.60278,-3.91177 -0.82956,-5.875 -0.66843,-5.76729 -0.2805,-11.54601 0.39787,-17.29862 2.34545,-19.87545 8.104652,-40.11319 17.965909,-58.42361 3.175018,-5.89459 6.49526,-11.79243 11.237894,-16.97223 1.706871,-1.86368 3.686284,-4.35402 6.439558,-5.22222 0.797734,1.93222 0.885266,4.18431 1.247329,6.20139 0.644553,3.59191 1.344807,7.17892 1.98936,10.77083 2.003286,11.15761 4.205507,22.29237 6.167016,33.45487 0.724127,4.12556 1.318946,8.31802 2.333519,12.40278 0.352117,1.41 1.738701,3.98031 1.074254,5.37073 -0.505297,1.05423 -2.64187,2.06441 -3.660422,2.81673 -2.928338,2.1607 -5.854686,4.32792 -8.753184,6.51473 -7.637153,5.76076 -15.467273,11.35017 -23.076575,17.13542 -2.757253,2.09541 -5.562251,4.15166 -8.355308,6.21444 -1.31497,0.97101 -2.60209,2.23903 -4.17766,2.90976 z"
       id="path2464" /><path
       style="fill:#800080;stroke-width:1.6105"
       d="m 702.72161,1178.2306 c -31.40545,-13.3984 -56.7857,-28.8681 -73.01544,-44.5044 -5.31466,-5.1203 -11.11246,-9.5652 -12.88402,-9.8774 -4.29055,-0.7564 -6.69549,-8.4366 -10.7544,-34.3444 -4.70076,-30.0046 -22.8108,-133.46987 -29.3238,-167.53107 -3.04462,-15.92258 -8.82496,-45.98119 -12.84518,-66.79692 -4.02023,-20.81574 -12.08025,-64.66165 -17.91117,-97.43536 -5.83091,-32.77371 -13.86226,-76.89843 -17.84744,-98.05493 -3.98519,-21.1565 -7.00872,-38.70343 -6.71898,-38.99318 0.28975,-0.28974 8.82844,2.41995 18.97487,6.02155 43.33164,15.3811 76.63397,24.80588 115.8834,32.79576 28.56311,5.81451 96.8275,16.90047 104.06857,16.90047 8.01302,0 5.62076,1.97618 -7.6316,6.30428 -13.46518,4.3976 -34.87105,15.37918 -52.11974,26.73833 -16.95925,11.16853 -40.80126,36.0906 -51.39076,53.71879 -26.84449,44.68763 -30.66855,99.59023 -10.04559,144.22593 24.6346,53.31837 82.23574,95.07445 146.7645,106.39215 32.69949,5.7351 78.06754,4.6591 104.00028,-2.4667 23.16615,-6.3656 20.85912,-6.8829 42.21134,9.4652 31.95472,24.4657 37.8362,26.1287 60.74727,17.176 17.53598,-6.8524 26.16218,-11.059 33.00588,-16.0956 2.6573,-1.9556 5.9186,-4.0214 7.2472,-4.5906 5.2533,-2.2506 22.0541,-17.001 27.4218,-24.07517 3.1241,-4.1172 7.691,-11.45718 10.1487,-16.31105 4.0573,-8.01286 4.3023,-9.44287 2.6618,-15.53508 -2.2415,-8.32439 -11.4445,-18.36162 -33.3876,-36.41399 -9.0792,-7.46938 -16.5077,-14.66292 -16.5077,-15.98569 0,-1.32276 1.2048,-4.72438 2.6773,-7.55917 3.3618,-6.47206 9.7773,-31.27847 11.127,-43.02403 0.5612,-4.88448 0.2129,-15.52258 -0.7741,-23.64025 -6.3918,-52.56908 -34.9173,-98.78217 -78.98876,-127.96695 -15.89085,-10.52314 -48.45103,-26.3173 -59.66054,-28.9399 l -8.85776,-2.07237 9.57474,-1.26392 c 21.18496,-2.79653 80.89652,-14.72998 111.70152,-22.32371 34.1549,-8.41953 72.7347,-20.56998 102.2165,-32.1924 9.5417,-3.76156 17.8061,-6.38162 18.3654,-5.82236 0.5592,0.55925 -0.5558,10.62898 -2.4779,22.37716 -4.0261,24.60866 -16.9966,115.92462 -30.0271,211.39953 -4.9565,36.31681 -12.2176,87.04762 -16.1357,112.73512 -5.8406,38.29148 -15.0778,105.36843 -19.406,140.91893 -1.601,13.1499 -2.1737,14.2888 -9.2791,18.4528 -3.8248,2.2415 -7.8818,5.8089 -9.0157,7.9276 -4.5171,8.4402 -33.3397,27.175 -67.74431,44.0341 -30.30111,14.8483 -26.13537,15.9397 -42.41123,-11.1113 -16.34563,-27.167 -22.23157,-35.1432 -43.75062,-59.2878 -8.85775,-9.9385 -16.68946,-19.0895 -17.4038,-20.3356 -0.71432,-1.2462 -7.85157,-7.3301 -15.86054,-13.5198 -16.88934,-13.0529 -20.49866,-13.7779 -31.96447,-6.4203 -9.99463,6.4135 -39.92984,37.2903 -54.5217,56.2366 -11.93148,15.492 -24.01591,34.9476 -35.09145,56.4962 -4.26984,8.3075 -7.2139,12.2032 -9.42921,12.477 -1.77155,0.2191 -12.39814,-3.5169 -23.61466,-8.3021 z"
       id="path2613"
       transform="matrix(0.26458333,0,0,0.26458333,-212.63556,-82.397087)" /><path
       style="fill:#800080;stroke-width:1.6105"
       d="m 853.56591,1512.2733 c 4.14378,-0.7341 -1.02721,-1.1729 -14.49452,-1.23 -28.30621,-0.12 -46.4175,-4.6982 -89.38284,-22.5945 -41.59713,-17.3264 -49.92556,-22.7395 -49.92556,-32.4494 0,-1.8298 -0.81346,-3.3269 -1.8077,-3.3269 -1.24895,0 -1.188,-0.7466 0.1972,-2.4157 1.18691,-1.4302 1.32888,-2.4158 0.34797,-2.4158 -0.91131,0 -1.24825,-1.5627 -0.74875,-3.4728 0.49949,-1.9101 0.25046,-3.0663 -0.5534,-2.5695 -0.80387,0.4968 -1.5976,-3.557 -1.76385,-9.0086 -0.52218,-17.1226 -0.6887,-18.7696 -1.8978,-18.7696 -0.64867,0 -0.98406,-2.7177 -0.74531,-6.0394 0.37897,-5.2727 0.24808,-5.5283 -1.03113,-2.0131 -1.00857,2.7715 -1.17811,0.7638 -0.54402,-6.442 0.50665,-5.7576 1.05951,-10.6423 1.22859,-10.8549 0.16907,-0.2127 6.35594,2.5383 13.7486,6.1133 37.32168,18.0484 77.24652,31.3903 90.20679,30.145 4.18049,-0.4017 8.64127,0.059 9.92807,1.0255 1.28518,0.9652 7.85288,10.4516 14.59487,21.0809 14.97728,23.6129 20.79999,31.7808 23.219,32.5707 1.98166,0.6471 24.30126,-31.7975 29.12286,-42.3341 4.84323,-10.5839 8.61089,-15.2074 12.29356,-15.0862 3.36318,0.1107 3.36793,0.1466 0.2174,1.6395 -6.33459,3.0018 16.71131,-0.033 26.14759,-3.443 5.10589,-1.8452 12.54471,-4.1922 16.5307,-5.2154 3.986,-1.0233 20.16901,-8.2225 35.96225,-15.9982 15.79324,-7.7757 28.99675,-14.1376 29.3411,-14.1376 0.34438,0 0.34497,0.9059 0.001,2.0131 -0.34365,1.1072 -1.06264,5.9991 -1.59776,10.8709 -0.68143,6.2039 -0.48647,8.134 0.65071,6.442 1.22319,-1.82 1.62363,-0.827 1.62363,4.0262 0,4.3083 -0.46728,5.7042 -1.41077,4.2145 -2.25158,-3.5551 -3.8663,6.8738 -2.61496,16.8892 0.7227,5.7843 0.50849,8.6906 -0.64056,8.6906 -1.02025,0 -1.72639,3.6462 -1.72639,8.9144 0,5.4875 -0.99817,10.4379 -2.59653,12.8773 -5.91077,9.021 -45.27704,28.7548 -80.67219,40.4399 -14.37834,4.7468 -27.97741,8.6305 -30.22016,8.6305 -2.24276,0 -4.07775,0.5992 -4.07775,1.3316 0,0.7323 -2.27712,0.9973 -5.06027,0.5889 -3.50541,-0.5145 -4.71335,-0.1814 -3.93121,1.0841 0.78859,1.276 -1.20652,1.758 -6.61586,1.5984 l -7.74493,-0.2286 z"
       id="path3292"
       transform="matrix(0.26458333,0,0,0.26458333,-212.63556,-82.397087)" /><path
       style="fill:#ff7f2a;stroke-width:1.6105"
       d="m 812.49811,407.91179 c -3.10021,-0.35076 -15.05819,-2.81239 -26.57328,-5.47031 -63.30255,-14.61156 -119.54323,-37.61894 -141.1353,-57.73675 l -9.56844,-8.91512 25.54389,-28.98903 c 28.84848,-32.73933 53.60381,-56.94119 86.50781,-84.57368 28.12536,-23.61944 64.50783,-49.90747 69.04762,-49.89014 4.08051,0.0156 41.67181,23.96456 65.42928,41.68422 9.30064,6.93696 24.15752,19.00745 33.01528,26.82333 18.9915,16.75764 83.37335,80.0481 88.10523,86.61164 l 3.2805,4.55035 -8.7224,8.33367 c -20.37259,19.46476 -81.53266,45.95821 -141.44664,61.27211 -22.51828,5.75563 -33.82002,7.39298 -43.48355,6.29971 z"
       id="path3294"
       transform="matrix(0.26458333,0,0,0.26458333,-212.63556,-82.397087)" /><path
       style="fill:#ff9955;stroke-width:1.6105"
       d="m 830.11958,1625.1694 c -6.48921,-2.1105 -9.66612,-3.9897 -50.63675,-29.9535 -68.19238,-43.2147 -107.55578,-67.8748 -121.59288,-76.1747 -7.5291,-4.4519 -15.56358,-10.154 -17.85443,-12.6713 -3.48561,-3.8303 -80.76439,-122.243 -90.48692,-138.6513 -1.7058,-2.8788 -3.74321,-5.2342 -4.52762,-5.2342 -1.53326,0 -29.05255,19.9236 -86.83324,62.8662 -46.12199,34.2778 -49.67782,36.1797 -67.64108,36.1797 -15.56379,0 -21.3497,-2.1468 -32.69037,-12.1292 -13.54834,-11.9258 -23.30395,-37.4595 -26.94375,-70.5208 -2.77206,-25.1796 -1.17448,-81.1746 3.15174,-110.4682 15.17762,-102.7701 50.7162,-205.3968 93.78029,-270.81442 15.74511,-23.91801 39.79696,-48.07383 54.9641,-55.20169 6.01242,-2.82556 11.35566,-6.24225 11.87386,-7.59266 0.51821,-1.35042 -1.28372,-11.66575 -4.00426,-22.92296 -2.72054,-11.25722 -15.18996,-71.19848 -27.70984,-133.20279 -12.51987,-62.00432 -26.36818,-129.76618 -30.77402,-150.58191 -12.81259,-60.53414 -12.25571,-54.96693 -7.17088,-71.68881 12.6867,-41.72131 19.49736,-58.87711 38.17473,-96.16073 49.14725,-98.10735 150.34026,-226.38163 228.59954,-289.77738 33.71217,-27.30931 73.46157,-50.62901 92.96279,-54.53827 5.06921,-1.01619 14.19755,-2.87558 20.2852,-4.13199 21.66212,-4.47077 41.77828,-1.8173 69.45664,9.16185 45.43423,18.02235 93.56557,52.28688 143.37577,102.06868 89.9195,89.86835 157.5016,192.44932 198.6627,301.54445 10.3302,27.37974 11.6238,35.11142 8.2937,49.57039 -0.816,3.5431 -4.0854,26.73433 -7.2652,51.53605 -3.1798,24.80173 -9.7155,75.17017 -14.5236,111.92987 -4.8082,36.7597 -11.3258,87.12814 -14.4835,111.92987 -3.1577,24.80173 -6.9213,51.29545 -8.3634,58.87495 -1.4422,7.57949 -2.135,15.55147 -1.5396,17.71552 0.6531,2.37398 6.2426,7.76737 14.0921,13.59763 17.0122,12.63604 47.3028,43.89778 63.4659,65.50055 70.1818,93.8019 108.6747,221.0544 100.8815,333.5012 -2.8631,41.3102 -11.4467,79.1823 -22.0454,97.2676 -10.0704,17.1839 -37.7684,19.2339 -66.1557,4.8964 -6.1027,-3.0823 -33.9247,-21.3845 -61.8267,-40.6715 -66.1965,-45.758 -63.8549,-44.1796 -65.5406,-44.1796 -0.8022,0 -2.9569,3.0801 -4.788,6.8447 -1.8313,3.7645 -15.4771,27.4993 -30.3241,52.7439 -14.8471,25.2446 -31.0141,53.3379 -35.9268,62.4296 -11.0308,20.4143 -10.4655,19.9645 -72.78569,57.9078 -26.13039,15.9093 -65.51099,39.9614 -87.51246,53.4491 -22.00145,13.4877 -44.57408,27.0358 -50.16141,30.107 -10.652,5.8551 -22.43108,8.078 -29.91236,5.6449 z m 60.41067,-74.2576 c 31.36121,-6.6894 84.02075,-27.059 111.33285,-43.0654 12.037,-7.0543 26.9642,-19.5311 29.8758,-24.9715 6.2229,-11.6275 13.3342,-63.9022 15.3918,-113.1432 l 0.9421,-22.547 14.1679,-13.6893 c 7.7924,-7.5291 14.9403,-15.7294 15.8843,-18.223 0.944,-2.4935 1.7164,-8.4725 1.7164,-13.2866 0,-6.3428 0.6083,-8.7529 2.2091,-8.7529 2.4502,0 19.1444,10.9431 38.8587,25.472 25.8139,19.0242 140.278,97.8302 147.2161,101.355 7.9281,4.0277 23.6127,4.9154 34.318,1.9422 7.0421,-1.9557 14.9541,-8.2083 18.1104,-14.3121 9.5338,-18.4362 13.4181,-69.2092 8.171,-106.8025 -8.2458,-59.0763 -25.1429,-122.7035 -46.2101,-174.0064 -23.9817,-58.4006 -67.3726,-128.58846 -94.3371,-152.59712 -9.2428,-8.22962 -28.576,-21.14428 -35.61,-23.78757 -2.7968,-1.05099 -7.3197,-2.74862 -10.051,-3.7725 -4.8065,-1.80178 -4.9431,-2.1252 -4.2537,-10.06563 0.3918,-4.51223 3.6782,-28.134 7.3031,-52.49284 5.4797,-36.82269 25.9794,-181.2151 39.0908,-275.34089 1.7849,-12.81356 4.6594,-26.49429 6.3878,-30.40164 6.9841,-15.78876 2.4448,-47.78901 -11.3979,-80.35029 -12.4397,-29.26098 -39.301,-75.40856 -64.2146,-110.32034 -48.6524,-68.17721 -122.14438,-145.74133 -186.23228,-196.5513 -38.64906,-30.64162 -71.18627,-51.7112 -90.93358,-58.88436 -19.75427,-7.17568 -25.13826,-6.29374 -57.1363,9.35942 -36.87208,18.0375 -77.94648,51.19268 -132.93804,107.30736 -71.47959,72.93945 -123.58602,143.365 -160.33911,216.70966 -21.23368,42.37409 -29.24695,67.27399 -30.76595,95.60011 -0.86697,16.16718 -0.63715,18.36556 2.57896,24.66965 1.94191,3.80646 5.26015,16.11181 7.37388,27.34522 9.75302,51.83255 32.1754,173.80333 41.05888,223.3476 5.39998,30.11638 12.36432,68.04092 15.47627,84.27676 3.11198,16.23582 5.4214,30.22988 5.13208,31.09789 -0.28935,0.86801 -4.81901,3.32298 -10.06595,5.45549 -31.30132,12.72181 -65.11098,52.50642 -96.45237,113.49782 -38.76087,75.43 -60.99199,155.9566 -70.32071,254.7191 -2.924,30.9562 3.86108,77.275 13.80666,94.2519 6.67267,11.3902 12.07448,14.1099 29.30656,14.7555 8.19642,0.307 17.12603,-0.2169 19.84357,-1.1642 4.26384,-1.4864 102.98914,-73.8326 164.06439,-120.227 21.43977,-16.2862 22.56347,-16.5293 22.60877,-4.8921 0.0414,10.6407 5.54799,19.2584 20.37125,31.8803 13.6473,11.6207 16.24739,15.714 14.47276,22.7848 -1.39112,5.5426 9.50641,86.8727 13.29778,99.2437 1.76453,5.7575 3.71931,13.296 4.34395,16.7521 2.15385,11.9175 18.75054,25.8391 46.38731,38.9104 31.89921,15.0874 79.61971,30.704 107.668,35.2346 20.94312,3.3829 61.03978,2.2548 82.49147,-2.3209 z"
       id="path3434"
       transform="matrix(0.26458333,0,0,0.26458333,-212.63556,-82.397087)" /><path
       style="fill:#800080;stroke-width:1.6105"
       d="M 786.73008,401.74171 C 723.04545,386.71974 666.82767,363.54362 644.68379,343.18228 l -8.27248,-7.60656 19.82978,-22.44009 c 26.11077,-29.54786 63.79779,-66.84127 87.8107,-86.89358 34.98584,-29.2154 66.8363,-52.30787 72.14605,-52.30787 5.99926,0 51.68924,29.92821 78.33955,51.31459 26.88053,21.57113 109.61041,101.60747 109.61041,106.04169 0,0.93972 -2.746,4.18948 -6.10229,7.22167 -25.23923,22.80211 -91.6564,50.69556 -154.94787,65.07398 -21.93534,4.98323 -28.306,4.77478 -56.36756,-1.8444 z"
       id="path3505"
       transform="matrix(0.26458333,0,0,0.26458333,-212.63556,-82.397087)" /><path
       style="fill:#66ff00;stroke-width:1.6105"
       d="m 404.43062,1382.9829 c -2.29128,-8.4961 -2.98758,-54.3332 -1.1065,-72.8398 6.03983,-59.4211 21.81942,-123.1055 43.8021,-176.7795 11.00506,-26.8705 34.20041,-71.5739 47.55303,-91.6469 11.5582,-17.3754 36.78294,-44.81614 41.19703,-44.81614 2.68415,0 3.04978,1.15885 6.0975,19.32604 0.96588,5.7575 7.84777,43.4433 15.29308,83.7461 7.44532,40.3028 15.71274,85.6215 18.37206,100.7083 2.65932,15.0868 6.31573,32.2241 8.12535,38.083 1.80963,5.8589 2.86748,11.7542 2.35079,13.1007 -0.5167,1.3464 -3.96514,4.4479 -7.66321,6.8921 -3.69805,2.4442 -41.37518,30.2252 -83.72693,61.7357 -42.35175,31.5104 -79.77595,59.2687 -83.1649,61.6851 l -6.16172,4.3934 z"
       id="path3507"
       transform="matrix(0.26458333,0,0,0.26458333,-212.63556,-82.397087)" /><path
       style="fill:#66ff00;stroke-width:1.6105"
       d="m 1197.408,1318.0384 c -43.8459,-30.536 -85.3364,-59.2359 -92.2012,-63.7776 -6.8648,-4.5418 -12.4814,-9.3032 -12.4814,-10.581 0,-1.2778 1.0345,-6.4139 2.2988,-11.4135 1.2644,-4.9996 3.0528,-14.5257 3.9742,-21.169 15.1565,-109.275 31.4367,-220.1515 32.4924,-221.2902 2.0456,-2.20627 17.7604,10.4128 28.4851,22.8737 57.6577,66.9913 110.1622,198.0955 119.45,298.2676 2.7832,30.0185 2.1103,63.0413 -1.278,62.7097 -0.561,-0.055 -36.894,-25.0837 -80.7399,-55.6197 z"
       id="path3578"
       transform="matrix(0.26458333,0,0,0.26458333,-212.63556,-82.397087)" /><path
       style="fill:#66ff00;stroke-width:1.6105"
       d="m 840.00462,1386.2484 c -1.16997,-1.8734 -3.76515,-8.1679 -5.76708,-13.9877 -2.00192,-5.8198 -10.49316,-25.4384 -18.86942,-43.5968 -8.37626,-18.1584 -20.91674,-45.6201 -27.86773,-61.026 -6.951,-15.406 -14.40617,-30.1119 -16.56705,-32.68 -3.11021,-3.6963 -3.73846,-5.8426 -3.01503,-10.3006 1.2311,-7.5863 21.36343,-48.3071 31.78539,-64.2908 14.34556,-22.0012 33.63257,-45.8993 37.0431,-45.8993 6.96025,0 45.47942,51.6358 61.87202,82.9408 14.18157,27.0826 14.38905,27.9449 8.76564,36.4301 -2.57099,3.8794 -7.28182,13.576 -10.46852,21.548 -3.18669,7.972 -14.69992,36.2363 -25.58494,62.8095 -10.88503,26.5733 -21.38461,53.1991 -23.33239,59.1685 -1.94779,5.9694 -4.06463,11.1767 -4.7041,11.5719 -0.63948,0.3953 -2.11992,-0.8142 -3.28989,-2.6876 z"
       id="path3580"
       transform="matrix(0.26458333,0,0,0.26458333,-212.63556,-82.397087)" /><path
       style="fill:#66ff00;stroke-width:1.6105"
       d="m 794.78259,636.806 c -48.11488,-4.1759 -71.98831,-7.52555 -114.20637,-16.02417 -37.8399,-7.61729 -74.71954,-16.97224 -101.80001,-25.82277 -24.99445,-8.16877 -67.01667,-25.37295 -70.54906,-28.88327 -7.21877,-7.17365 15.70299,-70.47941 40.42614,-111.64969 12.29354,-20.47185 52.70519,-80.7897 54.12735,-80.7897 0.67148,0 5.55497,3.24341 10.8522,7.20759 20.35525,15.23285 57.50883,33.01811 95.48994,45.71063 22.58448,7.54729 85.21984,23.54475 98.62952,25.19061 17.85969,2.19204 63.10751,-5.57291 98.60696,-16.92188 46.73414,-14.94062 100.32964,-40.88485 122.77404,-59.43177 4.3839,-3.62268 9.1721,-6.58669 10.6403,-6.58669 3.3275,0 35.4519,43.0152 54.8805,73.48615 23.9785,37.60661 45.1605,84.35269 48.9043,107.92556 1.0412,6.55644 0.9377,6.74314 -5.9633,10.75556 -10.8668,6.31827 -54.479,24.00252 -79.4955,32.2345 -58.8538,19.3666 -128.75796,35.24908 -181.98667,41.34805 -15.61873,1.78961 -69.47352,3.28034 -81.33034,2.25129 z"
       id="path3582"
       transform="matrix(0.26458333,0,0,0.26458333,-212.63556,-82.397087)" /><path
       style="fill:#eeffaa;stroke-width:1.6105"
       d="m 894.64644,1386.4139 c 0.007,-1.2032 3.67952,-10.1597 8.16116,-19.9032 4.48163,-9.7435 12.50879,-28.5864 17.83814,-41.873 5.32935,-13.2867 14.7019,-35.8269 20.82788,-50.0895 9.62243,-22.4031 11.13814,-27.2356 11.13814,-35.5116 0,-10.0331 1.76795,-13.4448 6.96706,-13.4448 8.28615,0 57.16908,-22.6194 77.98788,-36.087 6.2886,-4.0681 12.2129,-7.3965 13.165,-7.3965 2.5919,0 2.1176,12.6307 -1.4228,37.8908 -1.7346,12.3766 -3.4324,32.3954 -3.7728,44.4863 l -0.6189,21.9833 -15.1506,15.5807 c -29.5966,30.4371 -60.04502,52.1767 -101.31237,72.3352 -26.91564,13.1479 -33.82863,15.6076 -33.80779,12.0293 z"
       id="path3584"
       transform="matrix(0.26458333,0,0,0.26458333,-212.63556,-82.397087)" /><path
       style="fill:#eeffaa;stroke-width:1.6105"
       d="m 778.67758,1386.4941 c -4.87177,-1.7234 -18.54683,-7.8331 -30.38902,-13.5771 -33.04653,-16.029 -67.62079,-39.4816 -95.58272,-64.8362 l -17.26288,-15.6532 -0.05,-10.1352 c -0.0696,-14.1094 -4.46604,-52.7296 -8.19631,-72.0004 -3.10517,-16.0414 -3.8375,-23.3522 -2.33922,-23.3522 0.4334,0 9.02525,4.7538 19.09299,10.564 19.3087,11.1434 61.09376,28.9598 72.01588,30.7063 8.14976,1.3032 11.17524,5.4919 11.17524,15.4719 0,6.522 3.61733,15.568 23.46856,58.6887 12.9077,28.038 26.72866,57.4694 30.71323,65.4032 9.48671,18.8891 10.69064,22.1208 8.18529,21.9714 -1.0853,-0.065 -5.95926,-1.5277 -10.83102,-3.2512 z"
       id="path3862"
       transform="matrix(0.26458333,0,0,0.26458333,-212.63556,-82.397087)" /><path
       style="fill:#eeffaa;stroke-width:1.6105"
       d="m 984.82179,1002.0483 c -1.32866,-0.4551 -10.73471,-7.30673 -20.90234,-15.22591 -31.9569,-24.89001 -38.32742,-26.90787 -66.67741,-21.11999 -44.92817,9.17245 -70.26472,10.78994 -97.01436,6.19339 -37.09664,-6.37454 -67.06248,-21.79588 -90.35923,-46.50164 -13.09909,-13.89133 -21.57265,-27.89368 -27.38617,-45.25497 -3.77226,-11.26532 -4.32351,-15.51439 -4.38767,-33.82053 -0.0617,-17.61133 0.52695,-22.84846 3.70655,-32.97467 14.98594,-47.72638 53.88887,-83.19318 106.25689,-96.87169 16.27162,-4.25013 51.85331,-5.84119 69.04173,-3.08725 73.31044,11.74589 128.10984,68.22584 128.19687,132.12836 0.0237,17.37505 -2.83203,30.38375 -11.04854,50.33008 -6.02497,14.62617 -6.68328,20.07485 -3.23179,26.74927 2.64847,5.12159 18.94964,20.82899 37.80838,36.43116 7.1712,5.93294 13.0386,11.29913 13.0386,11.92488 0,0.99519 -6.5326,7.06588 -28.97494,26.92617 -3.10794,2.75034 -6.7379,4.62834 -8.06657,4.17334 z M 748.62611,868.01335 c 20.8275,-2.38616 25.21996,-5.29102 25.21996,-16.6787 0,-11.78637 13.22288,-29.16303 35.43104,-46.56121 4.87177,-3.81661 9.88052,-9.05546 11.13056,-11.64188 2.03363,-4.20775 1.91569,-5.72408 -1.1208,-14.4098 -1.86648,-5.33895 -4.22381,-12.96846 -5.23851,-16.95445 -2.76702,-10.86956 -7.66901,-17.723 -15.08577,-21.09132 -8.43732,-3.83182 -12.7204,-3.80559 -25.54807,0.15648 -27.75726,8.57334 -59.458,38.71382 -71.97361,68.43116 -3.43996,8.16794 -4.07672,12.18724 -4.08448,25.78151 -0.008,13.64128 0.5465,17.14494 3.6233,22.90285 1.99787,3.73881 5.6215,7.87697 8.05251,9.19591 5.24659,2.84651 19.5883,3.16145 39.59387,0.86945 z"
       id="path3864"
       transform="matrix(0.26458333,0,0,0.26458333,-212.63556,-82.397087)" /></g></svg>
